<svg width="94" height="32" viewBox="0 0 94 32" fill="none" xmlns="http://www.w3.org/2000/svg"><path d="M93.1254 0.249548V3.60493H87.9777V14.8382H83.872V3.60493H78.7243V0.249548H93.1254Z" fill="white"></path><path d="M73.1693 14.8382V0.249548H77.2749V14.8382H73.1693Z" fill="white"></path><path d="M66.6511 0.249548H70.5484V14.8382H63.65L59.2526 2.89634V14.8382H55.3554V0.249548H62.2537L66.6511 12.1914V0.249548Z" fill="white"></path><path d="M45.5874 6.79412H53.3193V13.6299C50.9157 14.6025 48.5329 15.0888 46.1709 15.0888C43.4199 15.0888 41.2941 14.4219 39.7936 13.0881C38.2931 11.7542 37.5428 9.90635 37.5428 7.54439C37.5428 5.19632 38.2444 3.35537 39.6477 2.02156C41.0649 0.673847 43.0239 -7.62939e-06 45.5248 -7.62939e-06C47.5395 -7.62939e-06 49.1859 0.430704 50.4641 1.29213C51.7563 2.15355 52.5691 3.33453 52.9025 4.83507L48.9427 5.12685C48.6926 4.58498 48.2619 4.15427 47.6506 3.83471C47.0532 3.50126 46.3446 3.33453 45.5248 3.33453C44.2605 3.33453 43.2949 3.73051 42.628 4.52246C41.9749 5.31441 41.6484 6.32172 41.6484 7.54439C41.6484 8.86431 42.0375 9.89941 42.8155 10.6497C43.5936 11.3861 44.7398 11.7542 46.2543 11.7542C47.338 11.7542 48.4565 11.6014 49.6096 11.2957V9.50343H45.5874V6.79412Z" fill="white"></path><path d="M33.5249 14.8382L32.5245 11.9204H25.8763L24.8759 14.8382H20.8536L26.1889 0.249548H32.3369L37.693 14.8382H33.5249ZM26.9391 8.83599H31.4616L29.2108 2.27111L26.9391 8.83599Z" fill="white"></path><path d="M12.567 0.249548H19.6738L19.6529 14.8382H15.7557V2.70877L12.5879 14.8382H7.06506L3.89724 2.70877V14.8382H0V0.249548H7.14842L9.87857 12.2956L12.567 0.249548Z" fill="white"></path><path d="M57.5181 17.1608H61.6238V31.7494H57.5181V25.9973H50.9532V31.7494H46.8476V17.1608H50.9532V22.6419H57.5181V17.1608Z" fill="white"></path><path d="M31.6506 29.9993C30.2056 28.6516 29.4832 26.8037 29.4832 24.4556C29.4832 22.1075 30.1848 20.2666 31.5881 18.9328C33.0053 17.5851 34.9713 16.9112 37.486 16.9112C39.584 16.9112 41.2791 17.3697 42.5712 18.2867C43.8634 19.2037 44.6553 20.4611 44.9471 22.0589L41.0082 22.3507C40.8136 21.7116 40.3968 21.2044 39.7577 20.8293C39.1325 20.4403 38.3753 20.2458 37.486 20.2458C36.2078 20.2458 35.2352 20.6417 34.5683 21.4337C33.9153 22.2256 33.5888 23.2329 33.5888 24.4556C33.5888 25.7477 33.95 26.7759 34.6725 27.5401C35.4089 28.2903 36.4232 28.6655 37.7153 28.6655C38.674 28.6655 39.452 28.4501 40.0495 28.0194C40.6608 27.5887 41.0637 27.0329 41.2582 26.3521L45.218 26.5814C44.954 28.3459 44.1899 29.6936 42.9255 30.6245C41.6612 31.5415 39.9244 32 37.7153 32C35.1171 32 33.0956 31.3331 31.6506 29.9993Z" fill="white"></path><path d="M19.9859 28.5607H29.1351V31.7494H15.8803V17.1608H28.8016V20.3494H19.9859V22.8295H26.8426V25.8306H19.9859V28.5607Z" fill="white"></path><path d="M14.4141 17.1608V20.5162H9.26639V31.7494H5.16073V20.5162H0.0130386V17.1608H14.4141Z" fill="white"></path></svg>
